<svg id="Layer_1" data-name="Layer 1" xmlns="http://www.w3.org/2000/svg" viewBox="0 0 1306.91 192.75"><defs><style>.cls-1{font-size:50.7px;font-family:OpenSans-Regular, Open Sans;letter-spacing:0.07em;}.cls-1,.cls-3{fill:#434343;}.cls-2{font-size:76.06px;font-family:OpenSans-Bold, Open Sans;font-weight:700;letter-spacing:0.02em;}.cls-4{fill:#d42026;}.cls-5{fill:#f5f5f5;}</style></defs><title>adm_lt1</title><text class="cls-1" transform="translate(248.14 70.96)">PT.<tspan class="cls-2"><tspan x="0" y="72">ADIDAYA DUTA MITRAKOM</tspan></tspan></text><g id="Solid"><path class="cls-3" d="M190,53.63A96.38,96.38,0,1,0,286.36,150,96.38,96.38,0,0,0,190,53.63Zm0,181.3A84.93,84.93,0,1,1,274.92,150,84.93,84.93,0,0,1,190,234.93Z" transform="translate(-93.61 -53.63)"/><path class="cls-4" d="M271.54,150A81.58,81.58,0,0,1,205,230.17c-2.44.45-4.91.8-7.41,1-1.48.13-3,.23-4.45.29-1,0-2,0-3,.06H190c-.93,0-1.86,0-2.78-.05-1.5-.05-3-.14-4.45-.27q-3.76-.33-7.41-1a81.57,81.57,0,0,1,0-160.48q3.65-.66,7.41-1c1.47-.13,3-.22,4.45-.27.92,0,1.85,0,2.78,0h.18c1,0,2,0,3,.06,1.49.06,3,.16,4.45.29,2.5.23,5,.58,7.41,1a81.51,81.51,0,0,1,49.57,30.38,81.26,81.26,0,0,1,17,49.79Z" transform="translate(-93.61 -53.63)"/><path class="cls-5" d="M264.31,149.81A74.17,74.17,0,0,1,205,222.47q-3.65.74-7.41,1.11c-1.48.15-3,.25-4.45.31V209.05c1.5-.08,3-.2,4.45-.39a56.69,56.69,0,0,0,7.41-1.41,59.38,59.38,0,0,0,41.39-76.39L205,172.25l-11.86,11.86-3,3L134,130.86a59.38,59.38,0,0,0,41.39,76.39,56.69,56.69,0,0,0,7.41,1.41c1.47.19,3,.31,4.45.39v14.84c-1.5-.06-3-.16-4.45-.31q-3.76-.37-7.41-1.11a74.1,74.1,0,0,1-44.57-117l10.62,10.62,48.66,48.66.11-.12,48.68-48.67,10.62-10.62a74,74,0,0,1,14.84,44.5Z" transform="translate(-93.61 -53.63)"/><path class="cls-5" d="M205,77.16q-3.65-.73-7.41-1.11c-1.48-.15-3-.25-4.45-.31v78.75l53.13-53.14A74,74,0,0,0,205,77.16Zm0,43.19v-28a58.92,58.92,0,0,1,19.15,8.82Z" transform="translate(-93.61 -53.63)"/><path class="cls-5" d="M187.21,111.82V75.74c-1.5.06-3,.16-4.45.31q-3.76.38-7.41,1.11a74.13,74.13,0,0,0-41.21,24.11l10.52,10.52,30.69,30.69,11.86,11.86V137.58l-19.28-19.27,14.83-12.61ZM175.35,98l-14.83,10.74-5.75-6.5a59.05,59.05,0,0,1,20.58-9.85Z" transform="translate(-93.61 -53.63)"/></g></svg>